{"asset":{"generator":"Modov11.2","version":"2.0"},"scene":0,"scenes":[{"nodes":[0,2,4,5]}],"nodes":[{"name":"H","rotation":[0.0,0.0,-0.7079883217811585,0.7062241435050964],"translation":[-3.5799999237060549,0.5180000066757202,0.0],"scale":[1.0,1.0,1.0],"children":[1]},{"name":"heavy_low","matrix":[1.0,0.0,0.0,0.0,4.336808689942018e-19,1.0,0.0,0.0,0.0,0.0,1.0,0.0,0.0,0.0,0.0,1.0],"mesh":0},{"name":"L","rotation":[0.0,0.0,-0.7469066381454468,0.6649289131164551],"translation":[2.759999990463257,-0.5,0.0],"scale":[1.0,1.0,1.0],"children":[3]},{"name":"light_low","mesh":1},{"name":"Camera","matrix":[1.0,-6.998302015500787e-18,0.0,0.0,6.998302015500787e-18,1.0,0.0,0.0,0.0,0.0,1.0,0.0,0.0,0.0,20.0,1.0],"camera":0},{"name":"Texture Group"}],"meshes":[{"primitives":[{"indices":1,"mode":4,"material":1,"attributes":{"POSITION":0,"NORMAL":2,"TEXCOORD_0":3}}]},{"primitives":[{"indices":5,"mode":4,"material":2,"attributes":{"POSITION":4,"NORMAL":6,"TEXCOORD_0":7}}]}],"buffers":[{"byteLength":176728,"uri":"piezas_low_0006.bin"}],"bufferViews":[{"buffer":0,"byteLength":28512},{"buffer":0,"byteLength":36864,"byteOffset":28512},{"buffer":0,"byteLength":28512,"byteOffset":65376},{"buffer":0,"byteLength":19008,"byteOffset":93888},{"buffer":0,"byteLength":14100,"byteOffset":112896},{"buffer":0,"byteLength":19680,"byteOffset":126996},{"buffer":0,"byteLength":14100,"byteOffset":146676},{"buffer":0,"byteLength":9400,"byteOffset":160776},{"buffer":0,"byteLength":364,"byteOffset":170176},{"buffer":0,"byteLength":1092,"byteOffset":170540},{"buffer":0,"byteLength":364,"byteOffset":171632},{"buffer":0,"byteLength":1456,"byteOffset":171996},{"buffer":0,"byteLength":364,"byteOffset":173452},{"buffer":0,"byteLength":1092,"byteOffset":173816},{"buffer":0,"byteLength":364,"byteOffset":174908},{"buffer":0,"byteLength":1456,"byteOffset":175272}],"accessors":[{"bufferView":0,"type":"VEC3","componentType":5126,"count":2376,"min":[-0.6325651407241821,-0.6325652599334717,-0.34700000286102297],"max":[0.6325651407241821,3.8006551265716554,0.34700000286102297]},{"bufferView":1,"type":"SCALAR","componentType":5125,"count":9216},{"bufferView":2,"type":"VEC3","componentType":5126,"count":2376},{"bufferView":3,"type":"VEC2","componentType":5126,"count":2376},{"bufferView":4,"type":"VEC3","componentType":5126,"count":1175,"min":[-0.5104733109474182,-0.5104732513427734,-0.11659245193004608],"max":[0.5104733109474182,3.020500659942627,0.11659245193004608]},{"bufferView":5,"type":"SCALAR","componentType":5125,"count":4920},{"bufferView":6,"type":"VEC3","componentType":5126,"count":1175},{"bufferView":7,"type":"VEC2","componentType":5126,"count":1175},{"bufferView":8,"type":"SCALAR","componentType":5126,"count":91,"min":[0.0],"max":[3.0]},{"bufferView":9,"type":"VEC3","componentType":5126,"count":91},{"bufferView":10,"type":"SCALAR","componentType":5126,"count":91,"min":[0.0],"max":[3.0]},{"bufferView":11,"type":"VEC4","componentType":5126,"count":91},{"bufferView":12,"type":"SCALAR","componentType":5126,"count":91,"min":[0.0],"max":[3.0]},{"bufferView":13,"type":"VEC3","componentType":5126,"count":91},{"bufferView":14,"type":"SCALAR","componentType":5126,"count":91,"min":[0.0],"max":[3.0]},{"bufferView":15,"type":"VEC4","componentType":5126,"count":91}],"materials":[{"pbrMetallicRoughness":{"metallicFactor":0.5,"roughnessFactor":0.5}},{"name":"H","emissiveFactor":[0.0,0.0,0.0],"alphaMode":"OPAQUE","doubleSided":false,"normalTexture":{"index":2,"texCoord":0},"occlusionTexture":{"index":3,"texCoord":0},"pbrMetallicRoughness":{"baseColorFactor":[1.0,1.0,1.0,1.0],"metallicFactor":1.0,"roughnessFactor":1.0,"baseColorTexture":{"index":0,"texCoord":0},"metallicRoughnessTexture":{"index":1,"texCoord":0}}},{"name":"L","emissiveFactor":[0.0,0.0,0.0],"alphaMode":"OPAQUE","doubleSided":false,"normalTexture":{"index":6,"texCoord":0},"occlusionTexture":{"index":7,"texCoord":0},"pbrMetallicRoughness":{"baseColorFactor":[1.0,1.0,1.0,1.0],"metallicFactor":1.0,"roughnessFactor":1.0,"baseColorTexture":{"index":4,"texCoord":0},"metallicRoughnessTexture":{"index":5,"texCoord":0}}}],"textures":[{"name":"heavy_baseColor ","sampler":0,"source":0},{"name":"heavy_occlusionRoughnessMetallic  (3)","sampler":1,"source":1},{"name":"heavy_normal ","sampler":2,"source":2},{"name":"heavy_occlusionRoughnessMetallic ","sampler":3,"source":1},{"name":"light_baseColor ","sampler":4,"source":3},{"name":"light_occlusionRoughnessMetallic  (3)","sampler":5,"source":4},{"name":"light_normal ","sampler":6,"source":5},{"name":"light_occlusionRoughnessMetallic ","sampler":7,"source":4}],"images":[{"mimeType":"image/png","uri":"heavy_baseColor.png"},{"mimeType":"image/png","uri":"heavy_occlusionRoughnessMetallic.png"},{"mimeType":"image/png","uri":"heavy_normal.png"},{"mimeType":"image/png","uri":"light_baseColor.png"},{"mimeType":"image/png","uri":"light_occlusionRoughnessMetallic.png"},{"mimeType":"image/png","uri":"light_normal.png"}],"samplers":[{"wrapS":10497,"wrapT":10497},{"wrapS":10497,"wrapT":10497},{"wrapS":10497,"wrapT":10497},{"wrapS":10497,"wrapT":10497},{"wrapS":10497,"wrapT":10497},{"wrapS":10497,"wrapT":10497},{"wrapS":10497,"wrapT":10497},{"wrapS":10497,"wrapT":10497}],"animations":[{"channels":[{"sampler":0,"target":{"node":2,"path":"translation"}},{"sampler":1,"target":{"node":2,"path":"rotation"}},{"sampler":2,"target":{"node":0,"path":"translation"}},{"sampler":3,"target":{"node":0,"path":"rotation"}}],"samplers":[{"input":8,"output":9,"interpolation":"LINEAR"},{"input":10,"output":11,"interpolation":"LINEAR"},{"input":12,"output":13,"interpolation":"LINEAR"},{"input":14,"output":15,"interpolation":"LINEAR"}]}],"cameras":[{"name":"Camera","type":"perspective","perspective":{"znear":0.01,"yfov":0.8726}}]}