<svg width="512" height="512" viewBox="0 0 512 512" fill="none" xmlns="http://www.w3.org/2000/svg">
<path d="M253.221 491.943C382.924 491.943 488.068 386.799 488.068 257.097C488.068 127.394 382.924 22.25 253.221 22.25C123.519 22.25 18.375 127.394 18.375 257.097C18.375 386.799 123.519 491.943 253.221 491.943Z" stroke="white" stroke-width="12" stroke-miterlimit="1.5" stroke-linecap="round" stroke-linejoin="round"/>
<path d="M253.279 452.621C361.267 452.621 448.808 365.079 448.808 257.092C448.808 149.104 361.267 61.5625 253.279 61.5625C145.291 61.5625 57.75 149.104 57.75 257.092C57.75 365.079 145.291 452.621 253.279 452.621Z" stroke="white" stroke-width="12" stroke-miterlimit="1.5" stroke-linecap="round" stroke-linejoin="round"/>
<path d="M253.213 414.552C340.178 414.552 410.677 344.053 410.677 257.088C410.677 170.124 340.178 99.625 253.213 99.625C166.249 99.625 95.75 170.124 95.75 257.088C95.75 344.053 166.249 414.552 253.213 414.552Z" stroke="white" stroke-width="12" stroke-miterlimit="1.5" stroke-linecap="round" stroke-linejoin="round"/>
<path d="M253.257 376.718C319.328 376.718 372.889 323.156 372.889 257.085C372.889 191.014 319.328 137.453 253.257 137.453C187.186 137.453 133.625 191.014 133.625 257.085C133.625 323.156 187.186 376.718 253.257 376.718Z" stroke="white" stroke-width="12" stroke-miterlimit="1.5" stroke-linecap="round" stroke-linejoin="round"/>
<path d="M253.183 339.396C298.64 339.396 335.49 302.546 335.49 257.089C335.49 211.632 298.64 174.781 253.183 174.781C207.725 174.781 170.875 211.632 170.875 257.089C170.875 302.546 207.725 339.396 253.183 339.396Z" stroke="white" stroke-width="12" stroke-miterlimit="1.5" stroke-linecap="round" stroke-linejoin="round"/>
</svg>
