{
  "accessors": [
    {
      "bufferView": 0,
      "componentType": 5125,
      "count": 9120,
      "type": "SCALAR"
    },
    {
      "bufferView": 1,
      "componentType": 5126,
      "count": 1882,
      "max": [
        0.510473012924194,
        3.02050018310547,
        0.11659200489521
      ],
      "min": [
        -0.510473012924194,
        -0.510473012924194,
        -0.11659200489521
      ],
      "type": "VEC3"
    },
    {
      "bufferView": 2,
      "componentType": 5126,
      "count": 1882,
      "type": "VEC3"
    },
    {
      "bufferView": 3,
      "componentType": 5126,
      "count": 1882,
      "type": "VEC2"
    }
  ],
  "asset": {
    "generator": "Adobe Substance 3D Painter 7.4.0",
    "version": "2.0"
  },
  "bufferViews": [
    {
      "buffer": 0,
      "byteLength": 36480,
      "target": 34963
    },
    {
      "buffer": 0,
      "byteLength": 22584,
      "byteOffset": 36480,
      "target": 34962
    },
    {
      "buffer": 0,
      "byteLength": 22584,
      "byteOffset": 59064,
      "target": 34962
    },
    {
      "buffer": 0,
      "byteLength": 15056,
      "byteOffset": 81648,
      "target": 34962
    }
  ],
  "buffers": [
    {
      "byteLength": 96704,
      "uri": "light.bin"
    }
  ],
  "images": [
    {
      "uri": "light_baseColor.png"
    },
    {
      "uri": "light_occlusionRoughnessMetallic.png"
    },
    {
      "uri": "light_normal.png"
    }
  ],
  "materials": [
    {
      "alphaMode": "OPAQUE",
      "name": "light",
      "normalTexture": {
        "index": 2
      },
      "occlusionTexture": {
        "index": 1
      },
      "pbrMetallicRoughness": {
        "baseColorTexture": {
          "index": 0
        },
        "metallicRoughnessTexture": {
          "index": 1
        }
      }
    }
  ],
  "meshes": [
    {
      "name": "light_low",
      "primitives": [
        {
          "attributes": {
            "NORMAL": 2,
            "POSITION": 1,
            "TEXCOORD_0": 3
          },
          "indices": 0,
          "material": 0,
          "mode": 4
        }
      ]
    }
  ],
  "nodes": [
    {
      "children": [
        1
      ],
      "name": "light_low2.obj"
    },
    {
      "children": [
        2
      ],
      "name": "light_low"
    },
    {
      "mesh": 0,
      "name": "light_low"
    }
  ],
  "samplers": [
    {
      "magFilter": 9729,
      "minFilter": 9985,
      "wrapS": 10497,
      "wrapT": 10497
    }
  ],
  "scene": 0,
  "scenes": [
    {
      "name": "Scene",
      "nodes": [
        0
      ]
    }
  ],
  "textures": [
    {
      "sampler": 0,
      "source": 0
    },
    {
      "sampler": 0,
      "source": 1
    },
    {
      "sampler": 0,
      "source": 2
    }
  ]
}